# xmcd CD Database Entry
#
# Track frame offsets:
# 150
# 20167
# 40565
# 72144
# 100642
# 124868
# 146701
# 185340
#
# Disc length: 4213 seconds
#
# Revision: 3
# Processed by: cddbd v1.4PL0 Copyright (c) Steve Scherf et al.
# Submitted via: tcd 2.0b
#
DISCID=68107308
DTITLE=Young Farmers Claim Future - Geschnitzte Figuren
DYEAR=1900
DGENRE=
TTITLE0=Zerone Eenul
TTITLE1=Tribute to Flusser
TTITLE2=Not Sexy But Sensuous
TTITLE3=Concert Electrique
TTITLE4=Mellow
TTITLE5=Minutes Draft
TTITLE6=Parent Problems
TTITLE7=???
EXTD=
EXTT0=
EXTT1=
EXTT2=
EXTT3=
EXTT4=
EXTT5=
EXTT6=
EXTT7=
PLAYORDER=
